Coordinates
version=1
nRows=11
nColumns=46
inDegrees=yes

Units are S.I. units (second, meters, Newtons, ...)
Angles are in degrees.

endheader
time	pelvis_tilt	pelvis_list	pelvis_rotation	pelvis_tx	pelvis_ty	pelvis_tz	bb_angle	bb_tx	bb_ty	bb_tz	hip_flexion_r	hip_adduction_r	hip_rotation_r	knee_angle_r	knee_angle_r_beta	ankle_angle_r	subtalar_angle_r	mtp_angle_r	crank_angle_r	hip_flexion_l	hip_adduction_l	hip_rotation_l	knee_angle_l	knee_angle_l_beta	ankle_angle_l	subtalar_angle_l	mtp_angle_l	crank_angle_l	lumbar_extension	lumbar_bending	lumbar_rotation	arm_flex_r	arm_add_r	arm_rot_r	elbow_flex_r	pro_sup_r	wrist_flex_r	wrist_dev_r	arm_flex_l	arm_add_l	arm_rot_l	elbow_flex_l	pro_sup_l	wrist_flex_l	wrist_dev_l
      2.50500000	    -15.63910376	     -2.00144743	     -0.82600798	      0.11000369	      1.10997707	     -0.24962102	      0.00000000	      0.50000000	      0.00000000	      0.25000000	     88.04380901	     -0.84330670	      2.13213379	    103.58386487	      1.80787949	     19.95424994	    -12.57857338	      0.00000000	      0.00000000	     45.00087529	     -3.98292142	      4.61434231	     45.20606427	      0.78899466	    -19.64590146	    -15.79621795	      0.00000000	      0.00000000	    -64.12351118	      2.56877752	      1.38106386	     89.30743367	    -11.38298021	     28.95334285	     53.84413908	     42.49637043	      0.00000000	      0.00000000	     88.10497316	    -16.72110109	     32.00345952	     55.12427947	     40.56933204	      0.00000000	      0.00000000
      2.51000000	    -15.65118617	     -1.85445396	     -0.86817691	      0.10969974	      1.10957870	     -0.24992542	      0.00000000	      0.50000000	      0.00000000	      0.25000000	     87.45374315	     -0.71239630	      2.24799494	    102.05071274	      1.78112094	     20.75089851	    -12.90796620	      0.00000000	      0.00000000	     45.41687686	     -3.62386165	      4.86403150	     46.90429931	      0.81863446	    -19.07272830	    -16.67569345	      0.00000000	      0.00000000	    -64.21349156	      2.58409728	      1.23675365	     89.32938916	    -11.38330926	     28.94048838	     54.09958369	     42.49779513	      0.00000000	      0.00000000	     88.18983364	    -16.79963337	     31.92798472	     55.20178784	     40.57933241	      0.00000000	      0.00000000
      2.51500000	    -15.68648378	     -1.80981771	     -0.87586885	      0.10939547	      1.10911489	     -0.25039023	      0.00000000	      0.50000000	      0.00000000	      0.25000000	     86.81641288	     -0.59955315	      2.27442150	    100.40906425	      1.75246877	     21.41673816	    -13.18623055	      0.00000000	      0.00000000	     45.89316141	     -3.31412252	      5.17564631	     48.64186764	      0.84896074	    -18.50864387	    -17.55781914	      0.00000000	      0.00000000	    -64.29127939	      2.71329380	      1.18922779	     89.35491022	    -11.37816839	     28.92064985	     54.39366716	     42.51015423	      0.00000000	      0.00000000	     88.19601673	    -16.93177705	     31.83942660	     55.26463468	     40.58611973	      0.00000000	      0.00000000
      2.52000000	    -15.95803193	     -2.27869337	     -0.82985497	      0.10892015	      1.10800671	     -0.25097886	      0.00000000	      0.50000000	      0.00000000	      0.25000000	     86.33035330	     -0.42182111	      1.72220896	     98.59854955	      1.72086933	     21.89516775	    -13.67452388	      0.00000000	      0.00000000	     46.86340514	     -3.41591450	      5.76100705	     50.72146303	      0.88525653	    -17.76893890	    -18.58799969	      0.00000000	      0.00000000	    -64.20223883	      3.37446255	      1.72026611	     89.36637370	    -11.36014406	     28.93102633	     55.27521173	     42.53094758	      0.00000000	      0.00000000	     88.04867151	    -17.30746792	     31.57630317	     55.64780474	     40.64685790	      0.00000000	      0.00000000
      2.52500000	    -16.06490746	     -2.37867374	     -0.80498470	      0.10863301	      1.10701434	     -0.25142776	      0.00000000	      0.50000000	      0.00000000	      0.25000000	     85.73509994	     -0.28882366	      1.56822468	     96.86136787	      1.69054979	     22.19690491	    -14.30386535	      0.00000000	      0.00000000	     47.55623648	     -3.25497686	      6.01398509	     52.69698657	      0.91973592	    -16.89011984	    -19.34792483	      0.00000000	      0.00000000	    -64.24237703	      3.65683012	      1.88537885	     89.37379115	    -11.49896639	     28.97977464	     55.99649661	     42.49755230	      0.00000000	      0.00000000	     87.90927438	    -17.50621030	     31.33250069	     56.14939976	     40.73856913	      0.00000000	      0.00000000
      2.53000000	    -16.12260855	     -2.46116831	     -0.80135795	      0.10840159	      1.10607908	     -0.25188522	      0.00000000	      0.50000000	      0.00000000	      0.25000000	     85.08763502	     -0.13827482	      1.46588245	     95.09228021	      1.65967338	     22.29376524	    -14.83656742	      0.00000000	      0.00000000	     48.18492189	     -3.11651300	      6.18593819	     54.65682943	      0.95394163	    -16.00091686	    -20.16033784	      0.00000000	      0.00000000	    -64.29428353	      3.88318898	      1.97426285	     89.37959785	    -11.59075819	     29.07708873	     56.61358465	     42.43943474	      0.00000000	      0.00000000	     87.81908874	    -17.71079781	     31.08057618	     56.60566801	     40.82793486	      0.00000000	      0.00000000
      2.53500000	    -16.15567818	     -2.55616675	     -0.79362471	      0.10824735	      1.10510557	     -0.25226238	      0.00000000	      0.50000000	      0.00000000	      0.25000000	     84.42424419	      0.02017464	      1.36428022	     93.32803691	      1.62888153	     22.18435721	    -15.44710898	      0.00000000	      0.00000000	     48.79885719	     -3.02509030	      6.29274749	     56.63183987	      0.98841207	    -14.94163328	    -20.74654176	      0.00000000	      0.00000000	    -64.37606874	      4.08993337	      2.09349257	     89.39104173	    -11.67237336	     29.17146379	     57.19159676	     42.33006352	      0.00000000	      0.00000000	     87.67648448	    -17.90242988	     30.81497644	     57.13614470	     40.94228370	      0.00000000	      0.00000000
      2.54000000	    -16.06148755	     -2.40386134	     -0.74445041	      0.10816235	      1.10424977	     -0.25287974	      0.00000000	      0.50000000	      0.00000000	      0.25000000	     83.71959212	     -0.03301374	      1.47833955	     91.69204033	      1.60032800	     22.11644370	    -15.59005027	      0.00000000	      0.00000000	     49.24199962	     -2.69282223	      6.20826401	     58.54923153	      1.02187686	    -14.00895551	    -21.57800257	      0.00000000	      0.00000000	    -64.51817710	      4.15400651	      1.95091529	     89.40656141	    -11.65071056	     29.18349040	     57.39032024	     42.31574364	      0.00000000	      0.00000000	     87.70161782	    -17.96014592	     30.72915397	     57.24965666	     40.96482081	      0.00000000	      0.00000000
      2.54500000	    -16.15696660	     -2.72104283	     -0.73564128	      0.10795770	      1.10316037	     -0.25330310	      0.00000000	      0.50000000	      0.00000000	      0.25000000	     83.08478928	      0.14649094	      1.19996581	     89.86799811	      1.56849246	     21.61248864	    -16.20049814	      0.00000000	      0.00000000	     50.06006991	     -2.87359970	      6.36638539	     60.65333300	      1.05860036	    -12.83179655	    -21.57083284	      0.00000000	      0.00000000	    -64.54870777	      4.54476026	      2.23307101	     89.42630603	    -11.59752744	     29.22902983	     57.99401947	     42.24687483	      0.00000000	      0.00000000	     87.48357797	    -18.24928616	     30.44867277	     57.81534731	     41.08037134	      0.00000000	      0.00000000
      2.55000000	    -16.06011749	     -2.47379530	     -0.69585162	      0.10778493	      1.10228637	     -0.25398329	      0.00000000	      0.50000000	      0.00000000	      0.25000000	     82.37691015	      0.05737432	      1.51797386	     88.26199786	      1.54046247	     21.25967610	    -16.09583425	      0.00000000	      0.00000000	     50.52075816	     -2.46657719	      6.27655845	     62.56006544	      1.09187912	    -11.88617337	    -22.24543473	      0.00000000	      0.00000000	    -64.67682727	      4.49272226	      1.97293562	     89.43586368	    -11.60711463	     29.22175412	     58.14591623	     42.23444927	      0.00000000	      0.00000000	     87.48827218	    -18.24885882	     30.39012388	     57.94791634	     41.10695533	      0.00000000	      0.00000000
      2.55500000	    -16.03466314	     -2.52218208	     -0.68570545	      0.10760601	      1.10125520	     -0.25460897	      0.00000000	      0.50000000	      0.00000000	      0.25000000	     81.66870011	      0.08361821	      1.56721676	     86.58294444	      1.51115746	     20.66550211	    -16.04443122	      0.00000000	      0.00000000	     51.20856294	     -2.45002528	      6.18048970	     64.63610361	      1.12811282	    -10.65285366	    -22.75904999	      0.00000000	      0.00000000	    -64.78431192	      4.68317130	      2.03135883	     89.45172237	    -11.50514018	     29.25702246	     58.44838501	     42.22393221	      0.00000000	      0.00000000	     87.48584319	    -18.42997659	     30.21642313	     58.22133117	     41.15468594	      0.00000000	      0.00000000
